<svg xmlns="http://www.w3.org/2000/svg" xmlns:xlink="http://www.w3.org/1999/xlink" viewBox="0 0 298.63 338.04"><defs><style>.cls-1{fill:url(#linear-gradient);}.cls-2{fill:url(#linear-gradient-2);}.cls-17,.cls-3,.cls-5{fill:#fff;}.cls-4{font-size:35.09px;fill:#de1f26;font-family:Dodger;letter-spacing:0em;}.cls-5{font-size:17.76px;}.cls-17,.cls-5{font-family:Roboto-Regular, Roboto;}.cls-6,.cls-7{fill:none;}.cls-7{stroke:#fff;stroke-linecap:round;stroke-linejoin:round;stroke-width:2px;}.cls-8{fill:#ee222b;}.cls-10,.cls-11,.cls-12,.cls-13,.cls-14,.cls-15,.cls-9{fill-rule:evenodd;}.cls-9{fill:url(#linear-gradient-3);}.cls-10{fill:url(#linear-gradient-4);}.cls-11{fill:url(#linear-gradient-5);}.cls-12{fill:url(#linear-gradient-6);}.cls-13{fill:url(#linear-gradient-7);}.cls-14{fill:url(#linear-gradient-8);}.cls-15{fill:url(#linear-gradient-9);}.cls-16{fill:url(#linear-gradient-10);}.cls-17{font-size:20px;}.cls-18{letter-spacing:-0.02em;}.cls-19{letter-spacing:-0.01em;}.cls-20{letter-spacing:-0.03em;}.cls-21{letter-spacing:-0.01em;}</style><linearGradient id="linear-gradient" x1="34.07" y1="33.62" x2="231.13" y2="33.62" gradientTransform="matrix(1.11, 0.08, -0.06, 0.88, -4.09, 1.35)" gradientUnits="userSpaceOnUse"><stop offset="0" stop-color="#151515" stop-opacity="0.64"/><stop offset="0.02" stop-color="#303030" stop-opacity="0.69"/><stop offset="0.06" stop-color="#5b5b5b" stop-opacity="0.76"/><stop offset="0.11" stop-color="#818181" stop-opacity="0.82"/><stop offset="0.15" stop-color="#a1a1a1" stop-opacity="0.88"/><stop offset="0.2" stop-color="#bbb" stop-opacity="0.92"/><stop offset="0.26" stop-color="#cfcfcf" stop-opacity="0.96"/><stop offset="0.32" stop-color="#ddd" stop-opacity="0.98"/><stop offset="0.39" stop-color="#e5e5e5"/><stop offset="0.5" stop-color="#e8e8e8"/><stop offset="0.66" stop-color="#e6e6e6"/><stop offset="0.73" stop-color="#dfdfdf" stop-opacity="0.99"/><stop offset="0.78" stop-color="#d2d2d2" stop-opacity="0.97"/><stop offset="0.83" stop-color="silver" stop-opacity="0.94"/><stop offset="0.86" stop-color="#a8a8a8" stop-opacity="0.9"/><stop offset="0.9" stop-color="#8c8c8c" stop-opacity="0.86"/><stop offset="0.93" stop-color="#696969" stop-opacity="0.8"/><stop offset="0.96" stop-color="#414141" stop-opacity="0.74"/><stop offset="0.99" stop-color="#151515" stop-opacity="0.67"/><stop offset="1" stop-opacity="0.64"/></linearGradient><linearGradient id="linear-gradient-2" x1="118.03" y1="44.38" x2="139.76" y2="44.38" gradientTransform="matrix(1, 0.07, -0.07, 1, 12.25, -8.28)" xlink:href="#linear-gradient"/><linearGradient id="linear-gradient-3" x1="8.34" y1="7.05" x2="255.56" y2="7.05" gradientTransform="translate(6.66 88.82) rotate(-0.98)" gradientUnits="userSpaceOnUse"><stop offset="0" stop-color="#de1f26" stop-opacity="0.73"/><stop offset="0.04" stop-color="#de1f26" stop-opacity="0.8"/><stop offset="0.1" stop-color="#de1f26" stop-opacity="0.89"/><stop offset="0.18" stop-color="#de1f26" stop-opacity="0.95"/><stop offset="0.27" stop-color="#de1f26" stop-opacity="0.99"/><stop offset="0.42" stop-color="#de1f26"/><stop offset="0.58" stop-color="#de1f26" stop-opacity="0.98"/><stop offset="0.72" stop-color="#de1f26" stop-opacity="0.93"/><stop offset="0.86" stop-color="#de1f26" stop-opacity="0.85"/><stop offset="1" stop-color="#de1f26" stop-opacity="0.73"/></linearGradient><linearGradient id="linear-gradient-4" x1="208.98" y1="11.6" x2="247.93" y2="11.6" gradientTransform="translate(6.66 88.82) rotate(-0.98)" xlink:href="#linear-gradient"/><linearGradient id="linear-gradient-5" x1="49.72" y1="19.09" x2="88.66" y2="19.09" gradientTransform="translate(6.66 88.82) rotate(-0.98)" xlink:href="#linear-gradient"/><linearGradient id="linear-gradient-6" x1="92.73" y1="30.53" x2="208.63" y2="30.53" gradientTransform="translate(6.66 88.82) rotate(-0.98)" xlink:href="#linear-gradient"/><linearGradient id="linear-gradient-7" x1="8.37" y1="36.03" x2="48.29" y2="36.03" gradientTransform="translate(6.66 88.82) rotate(-0.98)" xlink:href="#linear-gradient"/><linearGradient id="linear-gradient-8" x1="250.04" y1="20.39" x2="268.49" y2="20.39" gradientTransform="matrix(1, 0.03, -0.03, 1, 10.12, 83.17)" xlink:href="#linear-gradient"/><linearGradient id="linear-gradient-9" x1="107.64" y1="23.32" x2="193.97" y2="23.32" gradientTransform="translate(6.66 88.82) rotate(-0.98)" xlink:href="#linear-gradient"/><linearGradient id="linear-gradient-10" x1="1.15" y1="240.02" x2="295.22" y2="240.02" gradientTransform="matrix(1, 0.02, -0.02, 1, 3.4, -2.92)" xlink:href="#linear-gradient-3"/></defs><g id="Layer_2" data-name="Layer 2"><g id="Layer_1-2" data-name="Layer 1"><path class="cls-1" d="M249.66,65.38l-5.92-1.71-14.47-4.89-16.75-6.12-13-5.33-9.6-4L185,41.19l-15-6.6-14.51-6.75L143.77,22l-10-5.25-9.16,6.39-10.41,6.92-13,8.07L83.26,48.72,62.84,60.06,47.48,67.71,34.14,73.92l-5.53,2.25,7-5.62L48.38,61l7.42-5.1L64,50.31,75,43.25l13.7-8.44,14.74-8.66,13.36-7.29,9.14-4.73c.35-.23.78-.51,1.29-.8l-1.81-.95L113.5,5.52,108,2.12c.32.08,15.15,4.69,25,8.21h0C142,6,155.18.24,155.74,0l-4.67,3.9-10.32,7.94-1.35.95c.4.17.75.33,1,.49l10,3.84,14.72,5.94,16.37,7.16,2.32,1.07-2.32-20,13.77-.65,3.18,27.46,10.67,5.14L218.49,48l8.41,4.33,14.65,8.23Z"/><circle class="cls-2" cx="137.63" cy="45.23" r="10.86"/><polygon class="cls-3" points="3.8 151.34 4.63 140.32 298.63 140.37 3.8 151.34"/><text class="cls-4" transform="translate(8.54 189.72) rotate(-2.38)">AA <tspan class="cls-3" x="82.77" y="0">MOTORS</tspan></text><text class="cls-5" transform="translate(91.95 205.25) rotate(-2.33)">ROPERTY ADVISOR</text><rect class="cls-6" x="76.37" y="192.48" width="9.83" height="9.83" transform="translate(-18.17 8.5) rotate(-5.39)"/><path class="cls-7" d="M85.5,200.23a4.8,4.8,0,0,0,.54-2.69A4.72,4.72,0,1,0,77.68,201"/><path class="cls-8" d="M76.22,193.9a6.09,6.09,0,0,0,.81,8.83,9,9,0,0,0,1.85,1.05l.85,9.27,3.14,2.49,2.64-3-.1-1.1h0l-1.26-1,1.06-1.21-1.26-1L85,207l-1.25-1,1-1.15-.21-1.6a6.15,6.15,0,0,0,1.74-1.38,6.07,6.07,0,0,0-.81-8.82A6.83,6.83,0,0,0,76.22,193.9Zm7.69,10.7-1.32,1.51,1.26,1-1.06,1.21,1.26,1L83,210.52l1.58,1.25.05.55-1.85,2.12-2.2-1.75-.8-8.71a1.88,1.88,0,0,0,.77.1l.75,8.16.88.69-.81-8.82a7.54,7.54,0,0,0,2.46-.5ZM85,200.89a5.11,5.11,0,0,1-6.93.63,4.56,4.56,0,0,1-.61-6.62,5.11,5.11,0,0,1,6.94-.63A4.56,4.56,0,0,1,85,200.89Z"/><polygon class="cls-3" points="81.59 197.22 84.25 195.87 84.3 195.94 82.15 198.05 81.59 197.22"/><path class="cls-7" d="M81.27,197.2a.79.79,0,1,0,.86.71A.79.79,0,0,0,81.27,197.2Z"/><rect class="cls-7" x="79.66" y="200.53" width="3.93" height="0.79" transform="translate(-18.5 8.55) rotate(-5.39)"/><path class="cls-9" d="M84.66,93.69l.3,0,.31.05c3.9.64,12.71,1.26,18.17,1.61-27.2,1.53-49.75-.16-87.9,24.92,12.67-14.11,40-24.36,62.28-28.15C135,65.45,152,64.9,214.19,73.83c27.3,3.92,48.61,8.84,47.94,8.79a231.33,231.33,0,0,0-52,1.93h0a710,710,0,0,1-85,9.11s28.6-2,51.33-6.34c15.33-2.89,28-5.24,34.6-6.47-40.72-16.11-86.58-5-108.33,3.4C91,88.82,84.66,93.69,84.66,93.69Z"/><path class="cls-10" d="M235.25,95.12a33.17,33.17,0,0,0-19.36,6.64,24.21,24.21,0,0,1,38.94-.67A33.21,33.21,0,0,0,235.25,95.12Z"/><path class="cls-11" d="M76.14,105.34A33.13,33.13,0,0,0,56.78,112a24.21,24.21,0,0,1,38.94-.67A33.15,33.15,0,0,0,76.14,105.34Z"/><path class="cls-12" d="M213.18,128.81l-113.06,1.93,109-4.59c-.76-7,0-16.24,6.45-23.37C211.49,109.12,208.85,123.68,213.18,128.81Z"/><path class="cls-13" d="M55,116.53a22.11,22.11,0,0,0-.55,7.69,26.67,26.67,0,0,0,1.23,7.28s-33,.46-34.77.52a18,18,0,0,1-5.16-1.1c.21,0,2.82.3,4-.28s5.65-4.22,5.65-4.22l-4.28-6.86c-.73.32-5.35,2.31-4.93,2s5.06-2.92,5.06-2.92l5,7.65-3.78,4.34,31.58-1a39.93,39.93,0,0,1-.39-8.11A20.14,20.14,0,0,1,55,116.53Z"/><path class="cls-14" d="M274.55,95.27c.13.63,3.33,17.35,3.33,17.35-1.88,5.47-8.49,11.5-17,13.88,1.48-2.87,2.52-8.9-1.4-15.38,4.16,4.4,4,12,4.41,11.88,4-1.68,11-7.21,12.65-12.56Z"/><polygon class="cls-15" points="200.78 95.86 187.08 118.58 114.9 123.24 186.34 115.39 200.78 95.86"/><line class="cls-6" x1="139.22" y1="240.09" x2="138.64" y2="240.12"/><line class="cls-6" x1="139.22" y1="240.09" x2="138.98" y2="240.1"/><line class="cls-6" x1="139.22" y1="240.09" x2="138.74" y2="240.12"/><path class="cls-3" d="M131.4,262.86a3.87,3.87,0,0,0,4.33,4.36l4.32-.52,5,4.84-10.2,7.22-7.44-8.4L126,270.3l.38-10.18,8.91.34-2.36.74C132.37,261.39,131.45,261.63,131.4,262.86Z"/><circle class="cls-3" cx="143.77" cy="272.68" r="1.7"/><path class="cls-3" d="M137.32,263.52a2.12,2.12,0,1,1-4.24-.17l0-.42,2.67.1Z"/><circle class="cls-3" cx="140.77" cy="262.37" r="1.7"/><circle class="cls-3" cx="141.16" cy="274.28" r="1.7"/><circle class="cls-3" cx="138.55" cy="275.88" r="1.7"/><circle class="cls-3" cx="135.94" cy="277.48" r="1.7"/><path class="cls-3" d="M149.22,263.67l-.4,10.19-1.68-1a3.71,3.71,0,0,0-1.42-2.94c-.76-.81-5.05-5-5.05-5l-5.06.6-.18,0h-.09l-2.25-2.62,7.08-2.14.22-.07h0l1.13.14h0l.22.14,4.06,2.41Z"/><path class="cls-16" d="M294.49,209.07l-.56,11L216.4,222l-67.58,51.91.4-10.19s43-31.3,53.24-41.39L87.46,225c9.76,10.75,38.94,35.09,38.94,35.09L126,270.31,73.55,225.36,0,227.12Z"/><line class="cls-6" x1="128.81" y1="259.55" x2="128.29" y2="273.21"/><text class="cls-17" transform="matrix(1, -0.01, 0.01, 1, 60.88, 310.62)"><tspan class="cls-18">W</tspan><tspan x="17.44" y="0">e </tspan><tspan class="cls-19" x="32.99" y="0">K</tspan><tspan x="45.27" y="0">eep </tspan><tspan class="cls-20" x="82.64" y="0">Y</tspan><tspan x="94.01" y="0">our D</tspan><tspan class="cls-21" x="141.28" y="0">a</tspan><tspan x="152.01" y="0">ys </tspan><tspan x="0" y="22" xml:space="preserve">  in Rest &amp; Motion!</tspan></text></g></g></svg>